<?xml version="1.0" encoding="UTF-8" standalone="no"?>
<!-- Created with Inkscape (http://www.inkscape.org/) -->

<svg
   width="220mm"
   height="220mm"
   viewBox="0 0 219.99999 219.99999"
   version="1.1"
   id="svg1"
   xmlns:xlink="http://www.w3.org/1999/xlink"
   xmlns="http://www.w3.org/2000/svg"
   xmlns:svg="http://www.w3.org/2000/svg">
  <defs
     id="defs1">
    <linearGradient
       id="linearGradient1">
      <stop
         style="stop-color:#f5b544;stop-opacity:1;"
         offset="0"
         id="stop1" />
      <stop
         style="stop-color:#e8743b;stop-opacity:1;"
         offset="0.36093122"
         id="stop3" />
      <stop
         style="stop-color:#e8743b;stop-opacity:1;"
         offset="0.36093122"
         id="stop4" />
      <stop
         style="stop-color:#a8321f;stop-opacity:1;"
         offset="1"
         id="stop2" />
    </linearGradient>
    <linearGradient
       xlink:href="#linearGradient1"
       id="linearGradient2"
       x1="102.30438"
       y1="47.324017"
       x2="117.69566"
       y2="172.67598"
       gradientUnits="userSpaceOnUse"
       gradientTransform="matrix(1.0981308,0,0,1.0981308,-10.794389,-10.79439)" />
  </defs>
  <g
     id="layer1">
    <path
       d="m 113.33407,211.89101 c 0,-0.64471 0.59313,-4.17766 3.58455,-21.99718 4.2808,-25.50434 5.41548,-32.05448 5.8023,-33.3181 0.18051,-0.67049 0.77365,-1.77938 1.28939,-2.47565 0.51576,-0.69628 0.92836,-1.34097 0.92836,-1.44412 0,-0.0773 -1.41833,-0.15474 -3.14612,-0.15474 -2.9914,0 -5.46706,-0.10311 -21.816663,-0.79942 -3.739261,-0.15474 -6.833822,-0.23209 -6.885398,-0.18053 -0.103148,0.0773 -4.435537,24.44704 -7.50431,42.24077 -1.083097,6.16332 -2.011465,11.37251 -2.063042,11.55303 -0.180517,0.56732 -6.60173,-3.06879 -10.547295,-5.95704 -14.544437,-10.59887 -24.85964,-25.1691 -29.501484,-41.64763 -2.42407,-8.56162 -3.223501,-15.88541 -2.630375,-23.64761 1.083097,-13.66763 5.31233,-25.53012 13.899736,-38.914101 5.002875,-7.813772 8.252164,-11.965642 19.547312,-25.169101 12.197729,-14.209194 17.277965,-20.8625 22.203474,-29.011511 4.255015,-7.065914 7.478515,-15.111773 8.819505,-22.1519 0.43838,-2.166193 1.03151,-8.432678 1.05729,-10.8051751 0,-0.4126084 0.0774,-0.4126084 1.1089,0.1031475 1.90832,0.9799433 6.47278,3.9713536 9.10317,5.9570306 9.36105,7.143278 18.97998,18.490001 25.4012,29.991454 10.16047,18.232122 13.02294,36.696339 9.64472,62.020176 -0.77365,5.67335 -3.48139,20.73355 -6.83384,37.77942 -2.39829,12.30089 -5.93123,33.18918 -5.93123,35.17485 0,0.28368 0.10312,0.54156 0.20629,0.54156 0.51578,0 4.22924,-2.86248 6.34386,-4.87394 4.97708,-4.77079 7.5301,-9.38683 10.59886,-19.1347 4.38397,-13.82238 10.18628,-44.22646 10.88256,-57.043092 0.0773,-1.676217 0.23208,-3.094555 0.33524,-3.146137 0.23208,-0.154722 4.56447,8.819519 5.8023,11.991439 3.24929,8.27795 5.33811,16.47852 6.06017,23.69918 0.38682,3.91976 0.30947,12.50717 -0.12894,16.40117 -1.62462,13.89975 -6.98856,26.8969 -15.57595,37.77944 -2.93984,3.71347 -9.33526,9.97995 -12.94558,12.71347 -10.7536,8.04586 -22.84817,12.91981 -35.48431,14.235 -1.46993,0.15472 -1.62465,0.12893 -1.62465,-0.30946 z M 69.49446,170.55283 c 0.851005,-5.02866 2.630378,-14.90547 3.893991,-21.91981 1.289399,-7.01433 2.681952,-14.64759 3.09456,-16.96853 0.412607,-2.3209 1.108884,-5.28652 1.521493,-6.57592 2.114617,-6.60173 6.988551,-11.81092 14.570225,-15.57596 3.404017,-1.70202 8.071651,-3.58454 8.303721,-3.35245 0.18052,0.20632 -1.830931,11.65618 -3.687669,20.81094 -0.593123,3.04297 -1.083095,5.57019 -1.03152,5.59598 0.05157,0.0516 4.409749,0.38684 9.722069,0.72207 5.31235,0.36105 11.8625,0.82522 14.54444,1.03151 2.70777,0.20632 4.97711,0.28368 5.05445,0.18052 0.0773,-0.10312 0.61893,-3.24928 1.21204,-7.01433 1.57308,-10.08311 4.92552,-31.30664 6.98857,-44.097498 1.00572,-6.163329 1.88252,-11.681963 1.95989,-12.249302 0.15472,-1.031524 0.15472,-1.031524 -0.30948,-0.386825 -3.14612,4.280815 -5.38968,6.447007 -9.72207,9.335267 -3.50717,2.29513 -10.62467,5.905452 -19.36681,9.77365 -11.424075,5.028669 -17.56162,8.48426 -23.209193,13.048728 -10.77939,8.66477 -16.86536,21.14617 -19.521526,40.02299 -0.48997,3.37824 -0.567334,5.20919 -0.593123,11.50146 0,8.40688 0.257881,10.88255 1.805161,16.76221 0.773641,2.96562 2.449861,7.99429 2.888258,8.74213 0.232091,0.36104 0.103147,0.95416 1.882523,-9.38683 z"
       id="path49"
       style="fill:url(#linearGradient2);stroke-width:0.12894" />
  </g>
</svg>
