<?xml version="1.0" encoding="UTF-8" standalone="no"?>
<!-- Created with Inkscape (http://www.inkscape.org/) -->

<svg
   width="500mm"
   height="200mm"
   viewBox="0 0 500 200"
   version="1.1"
   id="svg1"
   xmlns:xlink="http://www.w3.org/1999/xlink"
   xmlns="http://www.w3.org/2000/svg"
   xmlns:svg="http://www.w3.org/2000/svg">
  <defs
     id="defs1">
    <linearGradient
       id="linearGradient1">
      <stop
         style="stop-color:#f5b544;stop-opacity:1;"
         offset="0"
         id="stop5" />
      <stop
         style="stop-color:#e8743b;stop-opacity:1;"
         offset="0.36093122"
         id="stop6" />
      <stop
         style="stop-color:#e8743b;stop-opacity:1;"
         offset="0.36093122"
         id="stop7" />
      <stop
         style="stop-color:#a8321f;stop-opacity:1;"
         offset="1"
         id="stop8" />
    </linearGradient>
    <linearGradient
       xlink:href="#linearGradient1"
       id="linearGradient2"
       x1="102.30438"
       y1="47.324017"
       x2="117.69566"
       y2="172.67598"
       gradientUnits="userSpaceOnUse"
       gradientTransform="translate(-34.32569,-11.671203)" />
    <linearGradient
       xlink:href="#linearGradient1"
       id="linearGradient10"
       x1="285.20627"
       y1="61.536251"
       x2="196.13329"
       y2="215.8152"
       gradientUnits="userSpaceOnUse"
       gradientTransform="translate(0.26764233,-1.586512)" />
  </defs>
  <g
     id="layer1">
    <g
       id="g1"
       transform="matrix(1.0300606,0,0,1.0300606,6.1034277,-1.2846102)">
      <g
         id="g2"
         transform="translate(2.3299866)">
        <path
           d="m 78.710433,191.11463 c 0,-0.58709 0.54013,-3.80433 3.26422,-20.03146 3.89827,-23.22523 4.93156,-29.19005 5.28381,-30.34074 0.16438,-0.61058 0.70451,-1.62037 1.17417,-2.25443 0.46967,-0.63406 0.8454,-1.22114 0.8454,-1.31507 0,-0.0704 -1.29159,-0.14091 -2.86498,-0.14091 -2.7241,0 -4.97852,-0.0939 -19.86709,-0.72799 -3.40511,-0.1409 -6.22313,-0.21135 -6.2701,-0.16439 -0.0939,0.0704 -4.039172,22.26241 -6.833712,38.46606 -0.98631,5.61256 -1.83172,10.35624 -1.87869,10.52063 -0.16438,0.51664 -6.01179,-2.79455 -9.60477,-5.4247 -13.24472,-9.65174 -22.63814,-22.91995 -26.86518,-37.92593 -2.20745,-7.79654 -2.93544,-14.46587 -2.39532,-21.53442 0.98631,-12.44627 4.83761,-23.248691 12.65763,-35.436661 4.55581,-7.11552 7.51474,-10.896366 17.80053,-22.919943 11.10772,-12.939436 15.73398,-18.998191 20.219342,-26.418993 3.87477,-6.434492 6.81021,-13.76136 8.03136,-20.172369 0.39922,-1.972618 0.93935,-7.6791209 0.96282,-9.8396068 0,-0.375737 0.0705,-0.375737 1.0098,0.09393 1.73778,0.892374 5.89437,3.6164665 8.2897,5.4247008 8.52454,6.504943 17.2839,16.837703 23.131297,27.311367 9.25252,16.602869 11.8592,33.417093 8.78286,56.477944 -0.70451,5.166376 -3.17028,18.880751 -6.22315,34.403371 -2.18398,11.20166 -5.40122,30.22333 -5.40122,32.03157 0,0.25833 0.0939,0.49316 0.18786,0.49316 0.46968,0 3.85131,-2.60668 5.77697,-4.43839 4.53232,-4.34446 6.8572,-8.54801 9.65173,-17.42479 3.99221,-12.58719 9.27601,-40.274275 9.91007,-51.945611 0.0704,-1.52643 0.21135,-2.81802 0.30528,-2.86499 0.21135,-0.1409 4.15659,8.03138 5.2838,10.91986 2.95893,7.538211 4.86109,15.005961 5.51863,21.581361 0.35226,3.56949 0.28181,11.38952 -0.11742,14.93554 -1.47945,12.65764 -6.36404,24.49335 -14.18406,34.4034 -2.67712,3.38163 -8.50104,9.08812 -11.78874,11.57738 -9.79265,7.32687 -20.806427,11.76527 -32.313377,12.96293 -1.33857,0.1409 -1.47947,0.11741 -1.47947,-0.28181 z M 38.788411,153.4705 c 0.77496,-4.57929 2.39532,-13.57349 3.54602,-19.96101 1.17418,-6.38753 2.44229,-13.33866 2.81803,-15.45219 0.37573,-2.11351 1.00979,-4.81411 1.38552,-5.98829 1.92566,-6.01179 6.36405,-10.75546 13.268212,-14.184051 3.09983,-1.54992 7.35034,-3.26421 7.56168,-3.05286 0.16439,0.18787 -1.66732,10.614551 -3.35813,18.951211 -0.54012,2.77105 -0.98631,5.07244 -0.93934,5.09592 0.047,0.047 4.01568,0.35226 8.85329,0.65754 4.83762,0.32878 10.80244,0.75147 13.24472,0.93934 2.46579,0.18788 4.53234,0.25833 4.60278,0.16438 0.0704,-0.0939 0.56361,-2.95892 1.10372,-6.38751 1.43251,-9.18207 4.48537,-28.509011 6.36406,-40.156859 0.91585,-5.612564 1.7143,-10.638043 1.78475,-11.154683 0.1409,-0.939345 0.1409,-0.939345 -0.28181,-0.352258 -2.86499,3.898274 -4.90806,5.870891 -8.8533,8.501052 -3.19376,2.090033 -9.67523,5.377727 -17.63615,8.900257 -10.4032,4.5793 -15.992292,7.72609 -21.135182,11.88268 -9.81613,7.890476 -15.35825,19.256491 -17.77705,36.446451 -0.44619,3.07635 -0.51664,4.74368 -0.54012,10.47366 0,7.65564 0.23483,9.91007 1.64385,15.26431 0.7045,2.70061 2.23093,7.27991 2.63015,7.96092 0.21136,0.32878 0.0939,0.8689 1.7143,-8.54801 z"
           id="path49-7"
           style="fill:url(#linearGradient2);stroke-width:0.117417" />
        <path
           d="m 167.23303,150.16333 v -10.16 h 19.26168 q 1.69333,0 1.69333,-1.69334 v -4.23333 q 0,-7.09084 -7.40833,-7.09084 h -13.54668 v -9.10167 h 21.27251 q 1.69334,0 1.69334,-1.79917 v -4.445 q 0,-7.09084 -7.40834,-7.09084 h -28.57501 q -1.37584,0 -1.37584,1.48167 v 55.98586 q 0,1.37583 1.37584,1.37583 h 35.13668 q 1.69333,0 1.69333,-1.79917 v -4.445 q 0,-6.985 -7.40833,-6.985 z m 62.97103,-12.27667 4.97417,-15.13418 5.18583,15.13418 z m -4.1275,12.27667 h 18.20334 l 4.02166,11.85334 q 0.635,1.37583 2.11667,1.37583 h 12.17084 q 1.37583,0 1.05833,-1.37583 l -17.25084,-47.94252 q -1.905,-5.50334 -4.33916,-7.51417 -2.43417,-2.01084 -6.98501,-2.01084 h -6.24417 q -1.16416,0 -1.5875,1.27 l -19.68501,56.19753 q -0.42333,1.37583 0.9525,1.37583 h 11.95918 q 1.16416,0 1.5875,-1.37583 z m 69.95595,-18.41501 v -13.97 h 9.2075 q 3.4925,0 5.50334,1.79916 2.01083,1.79917 2.01083,4.97417 0,7.19667 -7.51417,7.19667 z m 0,12.70001 h 6.0325 l 9.525,17.35667 q 0.84667,1.5875 2.96334,1.5875 h 12.48834 q 0.74083,0 0.9525,-0.42333 0.3175,-0.52917 0,-1.16417 l -11.85334,-19.57917 q 10.795,-5.39751 10.795,-17.88584 0,-9.94834 -6.13833,-14.92251 -5.71501,-4.86834 -16.61584,-4.86834 h -20.95501 q -1.37584,0 -1.37584,1.48167 v 55.98586 q 0,1.37583 1.37584,1.37583 h 11.53584 q 1.27,0 1.27,-1.37583 z m 63.92334,-26.67001 v 44.23835 q 0,1.37583 1.37583,1.37583 h 11.53584 q 1.37583,0 1.37583,-1.37583 v -44.23835 h 15.45167 q 1.58751,0 1.58751,-1.79917 v -4.23334 q 0,-7.19667 -7.30251,-7.19667 h -39.15835 q -1.37583,0 -1.37583,1.48167 v 10.47751 q 0,1.27 1.37583,1.27 z m 64.13501,22.86001 h 17.99167 v 21.37834 q 0,1.37583 1.37583,1.37583 h 11.53584 q 1.37584,0 1.37584,-1.37583 v -46.88419 q 0,-5.50333 -2.32834,-8.04334 -2.32833,-2.54 -7.51417,-2.54 h -3.06917 q -1.37583,0 -1.37583,1.48167 v 21.48418 h -17.99167 v -12.38251 q 0,-5.50333 -2.32834,-8.04334 -2.32833,-2.54 -7.51417,-2.54 h -2.96333 q -1.37584,0 -1.37584,1.48167 v 55.98586 q 0,1.37583 1.37584,1.37583 h 11.53584 q 1.27,0 1.27,-1.37583 z"
           id="text1"
           style="font-weight:900;font-size:84.6667px;line-height:0;font-family:Zain;-inkscape-font-specification:'Zain Heavy';letter-spacing:13.2292px;fill:url(#linearGradient10);stroke-width:0.264583"
           aria-label="EARTH" />
      </g>
    </g>
  </g>
</svg>
